<mxfile host="app.diagrams.net" agent="Mozilla/5.0 (Windows NT 10.0; Win64; x64; rv:136.0) Gecko/20100101 Firefox/136.0" version="26.1.3">
  <diagram name="Page-1" id="lRHZFAwA4tZSMQhSx_LC">
    <mxGraphModel dx="1313" dy="819" grid="1" gridSize="10" guides="1" tooltips="1" connect="1" arrows="1" fold="1" page="1" pageScale="1" pageWidth="850" pageHeight="1100" math="0" shadow="0">
      <root>
        <mxCell id="0" />
        <mxCell id="1" parent="0" />
        <mxCell id="kYcVlotOvuIv47Q7m2HT-189" value="Személy" style="rounded=0;whiteSpace=wrap;html=1;" vertex="1" parent="1">
          <mxGeometry x="270" y="330" width="120" height="60" as="geometry" />
        </mxCell>
        <mxCell id="kYcVlotOvuIv47Q7m2HT-190" value="Útlevél" style="rounded=0;whiteSpace=wrap;html=1;" vertex="1" parent="1">
          <mxGeometry x="770" y="330" width="120" height="60" as="geometry" />
        </mxCell>
        <mxCell id="kYcVlotOvuIv47Q7m2HT-191" value="&lt;u&gt;Szemely_ID&lt;/u&gt;" style="ellipse;whiteSpace=wrap;html=1;" vertex="1" parent="1">
          <mxGeometry x="120" y="430" width="90" height="40" as="geometry" />
        </mxCell>
        <mxCell id="kYcVlotOvuIv47Q7m2HT-192" value="Név" style="ellipse;whiteSpace=wrap;html=1;" vertex="1" parent="1">
          <mxGeometry x="225" y="430" width="90" height="40" as="geometry" />
        </mxCell>
        <mxCell id="kYcVlotOvuIv47Q7m2HT-193" value="Szül.dátum" style="ellipse;whiteSpace=wrap;html=1;" vertex="1" parent="1">
          <mxGeometry x="330" y="430" width="90" height="40" as="geometry" />
        </mxCell>
        <mxCell id="kYcVlotOvuIv47Q7m2HT-195" value="&lt;u&gt;Útlevél_ID&lt;/u&gt;" style="ellipse;whiteSpace=wrap;html=1;" vertex="1" parent="1">
          <mxGeometry x="600" y="430" width="90" height="40" as="geometry" />
        </mxCell>
        <mxCell id="kYcVlotOvuIv47Q7m2HT-196" value="Útlevélszám" style="ellipse;whiteSpace=wrap;html=1;" vertex="1" parent="1">
          <mxGeometry x="720" y="430" width="90" height="40" as="geometry" />
        </mxCell>
        <mxCell id="kYcVlotOvuIv47Q7m2HT-197" value="Lakcím" style="ellipse;whiteSpace=wrap;html=1;" vertex="1" parent="1">
          <mxGeometry x="430" y="430" width="90" height="40" as="geometry" />
        </mxCell>
        <mxCell id="kYcVlotOvuIv47Q7m2HT-198" value="Kibocsátás dátuma" style="ellipse;whiteSpace=wrap;html=1;" vertex="1" parent="1">
          <mxGeometry x="840" y="430" width="90" height="40" as="geometry" />
        </mxCell>
        <mxCell id="kYcVlotOvuIv47Q7m2HT-199" value="Lejárati dátum" style="ellipse;whiteSpace=wrap;html=1;" vertex="1" parent="1">
          <mxGeometry x="960" y="430" width="90" height="40" as="geometry" />
        </mxCell>
        <mxCell id="kYcVlotOvuIv47Q7m2HT-200" value="" style="endArrow=none;html=1;rounded=0;entryX=0.5;entryY=1;entryDx=0;entryDy=0;exitX=0.5;exitY=0;exitDx=0;exitDy=0;" edge="1" parent="1" source="kYcVlotOvuIv47Q7m2HT-191" target="kYcVlotOvuIv47Q7m2HT-189">
          <mxGeometry width="50" height="50" relative="1" as="geometry">
            <mxPoint x="370" y="390" as="sourcePoint" />
            <mxPoint x="420" y="340" as="targetPoint" />
          </mxGeometry>
        </mxCell>
        <mxCell id="kYcVlotOvuIv47Q7m2HT-201" value="" style="endArrow=none;html=1;rounded=0;entryX=0.5;entryY=1;entryDx=0;entryDy=0;exitX=0.5;exitY=0;exitDx=0;exitDy=0;" edge="1" parent="1" source="kYcVlotOvuIv47Q7m2HT-192" target="kYcVlotOvuIv47Q7m2HT-189">
          <mxGeometry width="50" height="50" relative="1" as="geometry">
            <mxPoint x="370" y="390" as="sourcePoint" />
            <mxPoint x="420" y="340" as="targetPoint" />
          </mxGeometry>
        </mxCell>
        <mxCell id="kYcVlotOvuIv47Q7m2HT-202" value="" style="endArrow=none;html=1;rounded=0;entryX=0.5;entryY=1;entryDx=0;entryDy=0;exitX=0.5;exitY=0;exitDx=0;exitDy=0;" edge="1" parent="1" source="kYcVlotOvuIv47Q7m2HT-193" target="kYcVlotOvuIv47Q7m2HT-189">
          <mxGeometry width="50" height="50" relative="1" as="geometry">
            <mxPoint x="370" y="390" as="sourcePoint" />
            <mxPoint x="420" y="340" as="targetPoint" />
          </mxGeometry>
        </mxCell>
        <mxCell id="kYcVlotOvuIv47Q7m2HT-203" value="" style="endArrow=none;html=1;rounded=0;entryX=0.5;entryY=1;entryDx=0;entryDy=0;exitX=0.5;exitY=0;exitDx=0;exitDy=0;" edge="1" parent="1" source="kYcVlotOvuIv47Q7m2HT-197" target="kYcVlotOvuIv47Q7m2HT-189">
          <mxGeometry width="50" height="50" relative="1" as="geometry">
            <mxPoint x="370" y="390" as="sourcePoint" />
            <mxPoint x="420" y="340" as="targetPoint" />
          </mxGeometry>
        </mxCell>
        <mxCell id="kYcVlotOvuIv47Q7m2HT-204" value="" style="endArrow=none;html=1;rounded=0;entryX=0.5;entryY=1;entryDx=0;entryDy=0;exitX=0.5;exitY=0;exitDx=0;exitDy=0;" edge="1" parent="1" source="kYcVlotOvuIv47Q7m2HT-195" target="kYcVlotOvuIv47Q7m2HT-190">
          <mxGeometry width="50" height="50" relative="1" as="geometry">
            <mxPoint x="370" y="390" as="sourcePoint" />
            <mxPoint x="420" y="340" as="targetPoint" />
          </mxGeometry>
        </mxCell>
        <mxCell id="kYcVlotOvuIv47Q7m2HT-205" value="" style="endArrow=none;html=1;rounded=0;entryX=0.5;entryY=1;entryDx=0;entryDy=0;exitX=0.5;exitY=0;exitDx=0;exitDy=0;" edge="1" parent="1" source="kYcVlotOvuIv47Q7m2HT-196" target="kYcVlotOvuIv47Q7m2HT-190">
          <mxGeometry width="50" height="50" relative="1" as="geometry">
            <mxPoint x="370" y="390" as="sourcePoint" />
            <mxPoint x="420" y="340" as="targetPoint" />
          </mxGeometry>
        </mxCell>
        <mxCell id="kYcVlotOvuIv47Q7m2HT-206" value="" style="endArrow=none;html=1;rounded=0;exitX=0.5;exitY=0;exitDx=0;exitDy=0;entryX=0.5;entryY=1;entryDx=0;entryDy=0;" edge="1" parent="1" source="kYcVlotOvuIv47Q7m2HT-198" target="kYcVlotOvuIv47Q7m2HT-190">
          <mxGeometry width="50" height="50" relative="1" as="geometry">
            <mxPoint x="370" y="390" as="sourcePoint" />
            <mxPoint x="420" y="340" as="targetPoint" />
          </mxGeometry>
        </mxCell>
        <mxCell id="kYcVlotOvuIv47Q7m2HT-207" value="" style="endArrow=none;html=1;rounded=0;entryX=0.5;entryY=1;entryDx=0;entryDy=0;exitX=0.5;exitY=0;exitDx=0;exitDy=0;" edge="1" parent="1" source="kYcVlotOvuIv47Q7m2HT-199" target="kYcVlotOvuIv47Q7m2HT-190">
          <mxGeometry width="50" height="50" relative="1" as="geometry">
            <mxPoint x="370" y="390" as="sourcePoint" />
            <mxPoint x="420" y="340" as="targetPoint" />
          </mxGeometry>
        </mxCell>
        <mxCell id="kYcVlotOvuIv47Q7m2HT-208" value="SZ-U" style="rhombus;whiteSpace=wrap;html=1;" vertex="1" parent="1">
          <mxGeometry x="540" y="320" width="80" height="80" as="geometry" />
        </mxCell>
        <mxCell id="kYcVlotOvuIv47Q7m2HT-209" value="" style="endArrow=classic;html=1;rounded=0;entryX=1;entryY=0.5;entryDx=0;entryDy=0;exitX=0;exitY=0.5;exitDx=0;exitDy=0;" edge="1" parent="1" source="kYcVlotOvuIv47Q7m2HT-208" target="kYcVlotOvuIv47Q7m2HT-189">
          <mxGeometry width="50" height="50" relative="1" as="geometry">
            <mxPoint x="370" y="390" as="sourcePoint" />
            <mxPoint x="420" y="340" as="targetPoint" />
          </mxGeometry>
        </mxCell>
        <mxCell id="kYcVlotOvuIv47Q7m2HT-210" value="" style="endArrow=classic;html=1;rounded=0;entryX=0;entryY=0.5;entryDx=0;entryDy=0;exitX=1;exitY=0.5;exitDx=0;exitDy=0;" edge="1" parent="1" source="kYcVlotOvuIv47Q7m2HT-208" target="kYcVlotOvuIv47Q7m2HT-190">
          <mxGeometry width="50" height="50" relative="1" as="geometry">
            <mxPoint x="370" y="390" as="sourcePoint" />
            <mxPoint x="420" y="340" as="targetPoint" />
          </mxGeometry>
        </mxCell>
      </root>
    </mxGraphModel>
  </diagram>
</mxfile>
